# xmcd
#
# Track frame offsets:
#	150
#	19565
#	95125
#	126862
#	200125
#	231475
#
# Disc length: 3844 seconds
# Revision: 0
# Processed by: cddbd v1.5.2PL0 Copyright (c) Steve Scherf et al.
# Submitted via: dBpowerAMP V12.0
#
DISCID=530f0206
DTITLE=Cream - Wheels Of Fire [SHM UICY-76024/5]
DYEAR=1968
DGENRE=Blues Rock
TTITLE0=Crossroads
TTITLE1=Spoonful
TTITLE2=Traintime
TTITLE3=Toad
TTITLE4=Sunshine Of Your Love (Bonus)
TTITLE5=N.S.U. (Bonus)
EXTD=
EXTT0=
EXTT1=
EXTT2=
EXTT3=
EXTT4=
EXTT5=
PLAYORDER=
